<svg xmlns="http://www.w3.org/2000/svg" viewBox="0 0 24 24" fill="none">
  <circle cx="12" cy="12" r="9" fill="#fde68a" stroke="#f59e0b" stroke-width="1.6"/>
  <circle cx="9" cy="10" r="1.2" fill="#1f2937"/>
  <circle cx="15" cy="10" r="1.2" fill="#1f2937"/>
  <path d="M9 15c1 1 2 1.5 3 1.5s2-.5 3-1.5" stroke="#1f2937" stroke-width="1.4" stroke-linecap="round"/>
  <path d="M6 12.5c-.8 0-1.8-.4-2.4-1.2-.4-.5-.6-1.1-.6-1.7 0-.3.2-.6.6-.4 1.3.6 2.6 1 4 .8-.2.8-.7 1.8-1.6 2.5z" fill="#fbbf24"/>
  <path d="M18 12.5c.8 0 1.8-.4 2.4-1.2.4-.5.6-1.1.6-1.7 0-.3-.2-.6-.6-.4-1.3.6-2.6 1-4 .8.2.8.7 1.8 1.6 2.5z" fill="#fbbf24"/>
</svg>
